<svg width="48" height="48" viewBox="0 0 48 48" fill="none" xmlns="http://www.w3.org/2000/svg" xmlns:xlink="http://www.w3.org/1999/xlink">
<path d="M40,21.998L44,21.998C44,11.738 36.254,4 25.98,4L25.98,8C34.104,8 40,13.886 40,21.998Z" fill="#FFFFFF"/>
<path d="M26,16C30.206,16 32,17.794 32,22L36,22C36,15.55 32.45,12 26,12L26,16ZM32.844,26.886C32.46,26.537 31.955,26.35 31.436,26.366C30.916,26.382 30.424,26.6 30.062,26.972L25.276,31.894C24.124,31.674 21.808,30.952 19.424,28.574C17.04,26.188 16.318,23.866 16.104,22.722L21.022,17.934C21.395,17.572 21.612,17.08 21.628,16.56C21.644,16.041 21.458,15.536 21.108,15.152L13.718,7.026C13.368,6.641 12.882,6.407 12.362,6.375C11.843,6.342 11.331,6.513 10.936,6.852L6.596,10.574C6.25,10.921 6.044,11.383 6.016,11.872C5.986,12.372 5.414,24.216 14.598,33.404C22.61,41.414 32.646,42 35.41,42C35.814,42 36.062,41.988 36.128,41.984C36.617,41.957 37.079,41.749 37.424,41.402L41.144,37.06C41.483,36.665 41.655,36.154 41.622,35.634C41.59,35.115 41.357,34.628 40.972,34.278L32.844,26.886L32.844,26.886Z" fill="#FFFFFF"/>
</svg>
