<svg width="30" height="32" viewBox="0 0 30 32" fill="none" xmlns="http://www.w3.org/2000/svg" xmlns:xlink="http://www.w3.org/1999/xlink">
<path d="M14,1C5.73,1 -1,7.73 -1,16C-1,24.27 5.73,31 14,31C22.27,31 29,24.27 29,16C29,7.73 22.27,1 14,1ZM14,3.5C20.919,3.5 26.5,9.081 26.5,16C26.503,18.992 25.43,21.886 23.477,24.153C21.523,26.42 18.82,27.909 15.86,28.349L15.86,19.645L19.42,19.645L19.979,16.029L15.86,16.029L15.86,14.054C15.86,12.554 16.354,11.22 17.757,11.22L20.014,11.22L20.014,8.065C19.618,8.011 18.779,7.895 17.194,7.895C13.884,7.895 11.944,9.642 11.944,13.625L11.944,16.029L8.541,16.029L8.541,19.645L11.944,19.645L11.944,28.318C9.025,27.837 6.372,26.334 4.458,24.078C2.545,21.822 1.497,18.958 1.5,16C1.5,9.081 7.081,3.5 14,3.5Z" fill="#FFFFFF"/>
</svg>
