<svg width="34" height="42" viewBox="0 0 34 42" fill="none" xmlns="http://www.w3.org/2000/svg" xmlns:xlink="http://www.w3.org/1999/xlink">
<path d="M16,-1C11.626,-0.995 7.432,0.745 4.338,3.838C1.245,6.932 -0.495,11.126 -0.5,15.5C-0.505,19.075 0.662,22.553 2.824,25.4C2.824,25.4 3.274,25.993 3.348,26.078L16,41L28.659,26.071C28.725,25.991 29.176,25.4 29.176,25.4L29.178,25.396C31.338,22.549 32.505,19.073 32.5,15.5C32.495,11.126 30.755,6.932 27.662,3.838C24.568,0.745 20.375,-0.995 16,-1L16,-1ZM16,21.5C14.813,21.5 13.653,21.148 12.667,20.489C11.68,19.83 10.911,18.892 10.457,17.796C10.003,16.7 9.884,15.493 10.115,14.329C10.347,13.166 10.918,12.096 11.757,11.257C12.597,10.418 13.666,9.847 14.829,9.615C15.993,9.384 17.2,9.503 18.296,9.957C19.392,10.411 20.33,11.18 20.989,12.167C21.648,13.153 22,14.313 22,15.5C21.998,17.091 21.365,18.616 20.24,19.74C19.116,20.865 17.591,21.498 16,21.5L16,21.5Z" fill="#FFFFFF"/>
</svg>
