<svg width="40" height="40" viewBox="0 0 40 40" fill="none" xmlns="http://www.w3.org/2000/svg" xmlns:xlink="http://www.w3.org/1999/xlink">
<path d="M20,11.988C15.566,11.988 11.988,15.567 11.988,20C11.988,24.434 15.566,28.012 20,28.012C24.434,28.012 28.012,24.434 28.012,20C28.012,15.567 24.434,11.988 20,11.988ZM20,25.207C17.133,25.207 14.793,22.867 14.793,20C14.793,17.133 17.133,14.793 20,14.793C22.867,14.793 25.207,17.133 25.207,20C25.207,22.867 22.867,25.207 20,25.207ZM28.34,9.793C27.305,9.793 26.469,10.629 26.469,11.664C26.469,12.699 27.305,13.535 28.34,13.535C29.375,13.535 30.211,12.703 30.211,11.664C30.211,11.418 30.163,11.175 30.069,10.948C29.975,10.721 29.837,10.514 29.664,10.341C29.49,10.167 29.283,10.029 29.056,9.935C28.829,9.841 28.586,9.793 28.34,9.793L28.34,9.793ZM35.617,20C35.617,17.844 35.637,15.707 35.516,13.555C35.394,11.055 34.824,8.836 32.996,7.008C31.164,5.176 28.949,4.61 26.449,4.488C24.293,4.367 22.156,4.387 20.004,4.387C17.848,4.387 15.711,4.367 13.559,4.488C11.059,4.61 8.84,5.18 7.012,7.008C5.18,8.84 4.613,11.055 4.492,13.555C4.371,15.711 4.391,17.848 4.391,20C4.391,22.153 4.371,24.293 4.492,26.446C4.613,28.946 5.184,31.164 7.012,32.992C8.844,34.824 11.059,35.391 13.559,35.512C15.715,35.633 17.852,35.614 20.004,35.614C22.16,35.614 24.297,35.633 26.449,35.512C28.949,35.391 31.168,34.821 32.996,32.992C34.828,31.16 35.394,28.946 35.516,26.446C35.641,24.293 35.617,22.156 35.617,20L35.617,20ZM32.18,29.211C31.894,29.922 31.551,30.453 31,31C30.449,31.551 29.922,31.895 29.211,32.18C27.156,32.996 22.277,32.813 20,32.813C17.723,32.813 12.84,32.996 10.785,32.184C10.074,31.899 9.543,31.555 8.996,31.004C8.445,30.453 8.102,29.926 7.816,29.215C7.004,27.156 7.187,22.278 7.187,20C7.187,17.723 7.004,12.84 7.816,10.785C8.102,10.074 8.445,9.543 8.996,8.996C9.547,8.449 10.074,8.102 10.785,7.817C12.84,7.004 17.723,7.188 20,7.188C22.277,7.188 27.16,7.004 29.215,7.817C29.926,8.102 30.457,8.446 31.004,8.996C31.555,9.547 31.898,10.074 32.184,10.785C32.996,12.84 32.812,17.723 32.812,20C32.812,22.278 32.996,27.156 32.18,29.211Z" fill="#FFFFFF"/>
<path d="M20,11.988C15.566,11.988 11.988,15.567 11.988,20C11.988,24.434 15.566,28.012 20,28.012C24.434,28.012 28.012,24.434 28.012,20C28.012,15.567 24.434,11.988 20,11.988ZM20,25.207C17.133,25.207 14.793,22.867 14.793,20C14.793,17.133 17.133,14.793 20,14.793C22.867,14.793 25.207,17.133 25.207,20C25.207,22.867 22.867,25.207 20,25.207ZM28.34,9.793C27.305,9.793 26.469,10.629 26.469,11.664C26.469,12.699 27.305,13.535 28.34,13.535C29.375,13.535 30.211,12.703 30.211,11.664C30.211,11.418 30.163,11.175 30.069,10.948C29.975,10.721 29.837,10.514 29.664,10.341C29.49,10.167 29.283,10.029 29.056,9.935C28.829,9.841 28.586,9.793 28.34,9.793L28.34,9.793ZM35.617,20C35.617,17.844 35.637,15.707 35.516,13.555C35.394,11.055 34.824,8.836 32.996,7.008C31.164,5.176 28.949,4.61 26.449,4.488C24.293,4.367 22.156,4.387 20.004,4.387C17.848,4.387 15.711,4.367 13.559,4.488C11.059,4.61 8.84,5.18 7.012,7.008C5.18,8.84 4.613,11.055 4.492,13.555C4.371,15.711 4.391,17.848 4.391,20C4.391,22.153 4.371,24.293 4.492,26.446C4.613,28.946 5.184,31.164 7.012,32.992C8.844,34.824 11.059,35.391 13.559,35.512C15.715,35.633 17.852,35.614 20.004,35.614C22.16,35.614 24.297,35.633 26.449,35.512C28.949,35.391 31.168,34.821 32.996,32.992C34.828,31.16 35.394,28.946 35.516,26.446C35.641,24.293 35.617,22.156 35.617,20L35.617,20ZM32.18,29.211C31.894,29.922 31.551,30.453 31,31C30.449,31.551 29.922,31.895 29.211,32.18C27.156,32.996 22.277,32.813 20,32.813C17.723,32.813 12.84,32.996 10.785,32.184C10.074,31.899 9.543,31.555 8.996,31.004C8.445,30.453 8.102,29.926 7.816,29.215C7.004,27.156 7.187,22.278 7.187,20C7.187,17.723 7.004,12.84 7.816,10.785C8.102,10.074 8.445,9.543 8.996,8.996C9.547,8.449 10.074,8.102 10.785,7.817C12.84,7.004 17.723,7.188 20,7.188C22.277,7.188 27.16,7.004 29.215,7.817C29.926,8.102 30.457,8.446 31.004,8.996C31.555,9.547 31.898,10.074 32.184,10.785C32.996,12.84 32.812,17.723 32.812,20C32.812,22.278 32.996,27.156 32.18,29.211Z" fill="#FFFFFF"/>
</svg>
