<svg width="34" height="34" viewBox="0 0 34 34" fill="none" xmlns="http://www.w3.org/2000/svg" xmlns:xlink="http://www.w3.org/1999/xlink">
<path d="M28.5,32.25L28.287,32.25C3.725,30.837 0.238,10.113 -0.25,3.788C-0.289,3.296 -0.231,2.801 -0.079,2.332C0.073,1.863 0.317,1.428 0.637,1.053C0.958,0.678 1.349,0.37 1.789,0.146C2.229,-0.078 2.708,-0.212 3.2,-0.25L10.087,-0.25C10.588,-0.25 11.078,-0.101 11.492,0.18C11.907,0.461 12.227,0.86 12.412,1.325L14.312,6C14.495,6.454 14.541,6.953 14.443,7.433C14.345,7.913 14.109,8.353 13.762,8.7L11.1,11.387C11.516,13.751 12.648,15.93 14.342,17.629C16.037,19.328 18.213,20.465 20.575,20.888L23.287,18.2C23.639,17.858 24.084,17.627 24.567,17.535C25.049,17.444 25.547,17.497 26,17.688L30.712,19.575C31.171,19.766 31.561,20.089 31.835,20.503C32.109,20.917 32.253,21.404 32.25,21.9L32.25,28.5C32.25,29.495 31.855,30.448 31.152,31.152C30.448,31.855 29.494,32.25 28.5,32.25ZM3.5,2.25C3.168,2.25 2.851,2.382 2.616,2.616C2.382,2.851 2.25,3.168 2.25,3.5L2.25,3.6C2.825,11 6.512,28.5 28.425,29.75C28.589,29.76 28.754,29.738 28.909,29.684C29.065,29.631 29.208,29.547 29.331,29.438C29.454,29.328 29.555,29.196 29.627,29.048C29.698,28.9 29.74,28.739 29.75,28.575L29.75,21.9L25.037,20.012L21.45,23.575L20.85,23.5C9.975,22.138 8.5,11.262 8.5,11.15L8.425,10.55L11.975,6.962L10.1,2.25L3.5,2.25Z" fill="#FFFFFF"/>
</svg>
