<svg width="40" height="40" viewBox="0 0 40 40" fill="none" xmlns="http://www.w3.org/2000/svg" xmlns:xlink="http://www.w3.org/1999/xlink">
<path d="M20,3.333C16.487,3.333 13.115,4.72 10.619,7.191C8.122,9.663 6.702,13.02 6.667,16.533C6.667,25.667 18.417,35.833 18.917,36.267C19.219,36.525 19.603,36.667 20,36.667C20.397,36.667 20.781,36.525 21.083,36.267C21.667,35.833 33.333,25.667 33.333,16.533C33.298,13.02 31.878,9.663 29.381,7.191C26.885,4.72 23.513,3.333 20,3.333ZM20,32.75C17.217,30.1 10,22.75 10,16.533C10,13.881 11.054,11.338 12.929,9.462C14.804,7.587 17.348,6.533 20,6.533C22.652,6.533 25.196,7.587 27.071,9.462C28.946,11.338 30,13.881 30,16.533C30,22.7 22.783,30.1 20,32.75Z" fill="#FFFFFF"/>
<path d="M20,10C18.846,10 17.718,10.342 16.759,10.983C15.8,11.624 15.052,12.535 14.611,13.601C14.169,14.667 14.054,15.84 14.279,16.971C14.504,18.103 15.059,19.142 15.875,19.958C16.691,20.774 17.73,21.329 18.862,21.555C19.993,21.78 21.166,21.664 22.232,21.223C23.298,20.781 24.209,20.033 24.85,19.074C25.491,18.115 25.833,16.987 25.833,15.833C25.833,14.286 25.219,12.802 24.125,11.709C23.031,10.615 21.547,10 20,10L20,10ZM20,18.333C19.506,18.333 19.022,18.187 18.611,17.912C18.2,17.637 17.879,17.247 17.69,16.79C17.501,16.333 17.452,15.831 17.548,15.346C17.644,14.861 17.883,14.415 18.232,14.066C18.582,13.716 19.027,13.478 19.512,13.381C19.997,13.285 20.5,13.334 20.957,13.524C21.413,13.713 21.804,14.033 22.079,14.444C22.353,14.856 22.5,15.339 22.5,15.833C22.5,16.496 22.237,17.132 21.768,17.601C21.299,18.07 20.663,18.333 20,18.333Z" fill="#FFFFFF"/>
</svg>
