<svg width="40" height="40" viewBox="0 0 40 40" fill="none" xmlns="http://www.w3.org/2000/svg" xmlns:xlink="http://www.w3.org/1999/xlink">
<path d="M23.333,20L17.5,23.333L17.5,16.667L23.333,20Z" fill="#FFFFFF" stroke="#FFFFFF" stroke-width="1.25" stroke-miterlimit="3.999327" stroke-linecap="round" stroke-linejoin="round"/>
<path d="M4.842,10.03L3.945,9.159L3.945,9.159L4.842,10.03ZM13.48,8.275L13.445,7.025L13.445,7.025L13.48,8.275ZM26.52,8.275L26.556,7.025L26.555,7.025L26.52,8.275ZM35.157,10.03L34.26,10.901L34.261,10.902L35.157,10.03ZM35.158,29.97L36.054,30.842L36.055,30.841L35.158,29.97ZM26.52,31.723L26.485,30.474L26.484,30.474L26.52,31.723ZM20,31.833L19.996,33.083L20,33.083L20,31.833ZM13.48,31.723L13.518,30.474L13.515,30.474L13.48,31.723ZM4.842,29.97L3.945,30.841L3.945,30.841L4.842,29.97ZM4.583,21.178L4.583,18.82L2.083,18.82L2.083,21.178L4.583,21.178ZM4.583,18.82C4.583,16.372 4.586,14.662 4.761,13.364C4.93,12.105 5.242,11.411 5.738,10.901L3.945,9.159C2.933,10.2 2.491,11.489 2.283,13.031C2.081,14.534 2.083,16.442 2.083,18.82L4.583,18.82ZM5.738,10.901C6.237,10.387 6.917,10.058 8.149,9.854C9.423,9.643 11.104,9.593 13.516,9.524L13.445,7.025C11.104,7.092 9.222,7.142 7.741,7.387C6.22,7.639 4.956,8.119 3.945,9.159L5.738,10.901ZM13.515,9.524C15.76,9.461 18.047,9.417 20,9.417L20,6.917C18.013,6.917 15.7,6.962 13.445,7.025L13.515,9.524ZM20,9.417C21.952,9.417 24.239,9.461 26.485,9.524L26.555,7.025C24.298,6.962 21.985,6.917 20,6.917L20,9.417ZM26.485,9.524C28.896,9.593 30.578,9.643 31.851,9.854C33.083,10.058 33.762,10.387 34.26,10.901L36.054,9.159C35.044,8.119 33.78,7.639 32.259,7.387C30.778,7.142 28.896,7.092 26.556,7.025L26.485,9.524ZM34.261,10.902C34.757,11.412 35.069,12.105 35.239,13.365C35.414,14.663 35.417,16.373 35.417,18.82L37.917,18.82C37.917,16.443 37.919,14.534 37.717,13.031C37.509,11.489 37.066,10.2 36.053,9.158L34.261,10.902ZM35.417,18.82L35.417,21.178L37.917,21.178L37.917,18.82L35.417,18.82ZM35.417,21.178C35.417,23.627 35.414,25.337 35.239,26.635C35.07,27.894 34.758,28.588 34.262,29.099L36.055,30.841C37.067,29.798 37.509,28.51 37.717,26.968C37.919,25.465 37.917,23.556 37.917,21.178L35.417,21.178ZM34.263,29.098C33.763,29.612 33.084,29.941 31.851,30.145C30.579,30.356 28.897,30.406 26.485,30.474L26.555,32.973C28.897,32.907 30.779,32.857 32.259,32.612C33.781,32.36 35.044,31.88 36.054,30.842L34.263,29.098ZM26.484,30.474C24.24,30.539 21.953,30.583 20,30.583L20,33.083C21.987,33.083 24.3,33.038 26.556,32.973L26.484,30.474ZM20.004,30.583C17.842,30.577 15.68,30.54 13.518,30.474L13.442,32.973C15.626,33.04 17.811,33.077 19.996,33.083L20.004,30.583ZM13.515,30.474C11.104,30.406 9.422,30.356 8.149,30.146C6.917,29.942 6.237,29.612 5.738,29.099L3.945,30.841C4.956,31.881 6.22,32.361 7.741,32.612C9.222,32.857 11.105,32.907 13.445,32.973L13.515,30.474ZM5.738,29.099C5.242,28.588 4.93,27.894 4.761,26.634C4.586,25.337 4.583,23.627 4.583,21.18L2.083,21.18C2.083,23.556 2.081,25.465 2.283,26.968C2.491,28.51 2.933,29.798 3.945,30.841L5.738,29.099ZM4.583,21.18L4.583,21.178L2.083,21.178L2.083,21.18L4.583,21.18Z" fill="#FFFFFF"/>
<path d="M9.22,8.678L9.22,10.345C9.248,10.345 9.275,10.344 9.303,10.343L9.22,8.678ZM30.781,8.679L30.698,10.344L30.698,10.344L30.781,8.679ZM35.514,13.256L33.853,13.395L33.853,13.395L35.514,13.256ZM35.507,26.71L33.846,26.57L33.846,26.57L35.507,26.71ZM30.851,31.279L30.96,32.942L30.96,32.942L30.851,31.279ZM9.15,31.279L9.259,29.616L9.259,29.616L9.15,31.279ZM4.494,26.713L2.833,26.853L2.834,26.854L4.494,26.713ZM4.486,13.253L2.825,13.114L2.825,13.114L4.486,13.253ZM9.219,8.678L9.219,7.012C9.192,7.012 9.164,7.013 9.136,7.014L9.219,8.678ZM9.303,10.343C13.913,10.114 17.473,10 19.998,10L19.998,6.667C17.39,6.667 13.766,6.783 9.137,7.014L9.303,10.343ZM19.998,10C22.524,10 26.086,10.114 30.698,10.344L30.864,7.015C26.233,6.783 22.606,6.667 19.998,6.667L19.998,10ZM30.698,10.344C31.504,10.384 32.268,10.716 32.849,11.277L35.166,8.88C34.005,7.758 32.476,7.095 30.864,7.015L30.698,10.344ZM32.849,11.277C33.429,11.838 33.786,12.591 33.853,13.395L37.175,13.117C37.04,11.508 36.326,10.003 35.166,8.88L32.849,11.277ZM33.853,13.395C34.062,15.891 34.165,18.069 34.165,19.937L37.498,19.937C37.498,17.953 37.389,15.678 37.175,13.117L33.853,13.395ZM34.165,19.937C34.165,21.827 34.06,24.036 33.846,26.57L37.167,26.85C37.387,24.251 37.498,21.945 37.498,19.937L34.165,19.937ZM33.846,26.57C33.779,27.365 33.429,28.11 32.859,28.669L35.194,31.048C36.333,29.93 37.033,28.441 37.167,26.85L33.846,26.57ZM32.859,28.669C32.29,29.228 31.538,29.564 30.742,29.616L30.96,32.942C32.552,32.838 34.055,32.166 35.194,31.048L32.859,28.669ZM30.742,29.616C26.82,29.873 23.24,30 19.998,30L19.998,33.333C23.325,33.333 26.98,33.203 30.96,32.942L30.742,29.616ZM19.998,30C16.758,30 13.178,29.873 9.259,29.616L9.041,32.942C13.019,33.203 16.672,33.333 19.998,33.333L19.998,30ZM9.259,29.616C8.463,29.564 7.712,29.228 7.142,28.67L4.808,31.049C5.947,32.167 7.449,32.838 9.041,32.942L9.259,29.616ZM7.142,28.67C6.573,28.111 6.222,27.367 6.155,26.572L2.834,26.854C2.968,28.443 3.669,29.932 4.808,31.049L7.142,28.67ZM6.155,26.572C5.938,24.018 5.832,21.808 5.832,19.937L2.498,19.937C2.498,21.928 2.612,24.236 2.833,26.853L6.155,26.572ZM5.832,19.937C5.832,18.088 5.936,15.909 6.147,13.393L2.825,13.114C2.609,15.693 2.498,17.969 2.498,19.937L5.832,19.937ZM6.147,13.393C6.214,12.589 6.571,11.836 7.152,11.276L4.835,8.879C3.674,10.001 2.96,11.505 2.825,13.114L6.147,13.393ZM7.152,11.276C7.732,10.715 8.496,10.383 9.302,10.343L9.136,7.014C7.524,7.094 5.996,7.757 4.835,8.879L7.152,11.276ZM9.219,10.345L9.22,10.345L9.22,7.012L9.219,7.012L9.219,10.345Z" fill="#FFFFFF"/>
<path d="M17.5,23.672L18.929,23.672L18.929,23.672L17.5,23.672ZM18.608,24.268L17.821,23.076L17.82,23.076L18.608,24.268ZM24.106,20.634L23.319,19.441L23.318,19.442L24.106,20.634ZM24.344,19.703L25.606,19.034L24.344,19.703ZM24.111,19.445L23.314,20.631L23.314,20.631L24.111,19.445ZM18.612,15.748L19.41,14.563L19.409,14.562L18.612,15.748ZM17.5,16.341L16.071,16.34L16.071,16.341L17.5,16.341ZM16.071,16.342L16.071,23.672L18.929,23.672L18.929,16.342L16.071,16.342ZM16.071,23.671C16.071,24.058 16.176,24.439 16.375,24.771L18.828,23.305C18.894,23.416 18.929,23.543 18.929,23.672L16.071,23.671ZM16.375,24.771C16.573,25.104 16.858,25.376 17.199,25.559L18.553,23.043C18.666,23.104 18.761,23.195 18.828,23.305L16.375,24.771ZM17.199,25.559C17.541,25.743 17.925,25.83 18.312,25.813L18.182,22.958C18.311,22.952 18.439,22.981 18.553,23.043L17.199,25.559ZM18.312,25.813C18.699,25.795 19.074,25.673 19.397,25.459L17.82,23.076C17.927,23.005 18.052,22.964 18.182,22.958L18.312,25.813ZM19.396,25.459L24.894,21.826L23.318,19.442L17.821,23.076L19.396,25.459ZM24.892,21.827C25.187,21.633 25.429,21.368 25.597,21.058L23.084,19.698C23.14,19.594 23.221,19.506 23.319,19.441L24.892,21.827ZM25.597,21.058C25.765,20.747 25.854,20.4 25.856,20.047L22.998,20.035C22.999,19.917 23.028,19.801 23.084,19.698L25.597,21.058ZM25.856,20.047C25.857,19.694 25.771,19.346 25.606,19.034L23.081,20.373C23.026,20.269 22.998,20.153 22.998,20.035L25.856,20.047ZM25.606,19.034C25.44,18.722 25.2,18.456 24.907,18.259L23.314,20.631C23.217,20.566 23.137,20.477 23.081,20.373L25.606,19.034ZM24.908,18.259L19.41,14.563L17.815,16.934L23.314,20.631L24.908,18.259ZM19.409,14.562C19.087,14.346 18.712,14.221 18.324,14.201L18.178,17.055C18.048,17.048 17.923,17.006 17.816,16.934L19.409,14.562ZM18.324,14.201C17.936,14.181 17.55,14.267 17.207,14.45L18.55,16.972C18.436,17.033 18.307,17.061 18.178,17.055L18.324,14.201ZM17.207,14.45C16.864,14.632 16.577,14.905 16.377,15.238L18.827,16.709C18.76,16.82 18.664,16.911 18.55,16.972L17.207,14.45ZM16.377,15.238C16.177,15.571 16.071,15.952 16.071,16.34L18.929,16.341C18.929,16.471 18.893,16.598 18.827,16.709L16.377,15.238ZM16.071,16.341L16.071,16.342L18.929,16.342L18.929,16.341L16.071,16.341Z" fill="#FFFFFF"/>
</svg>
